#!OML:ASF E:/inclinewalkrobotboard/Project1/Captureday1/Session1/subject1.ASF
:FULLY-SPECIFIED
:DEGREES
338
root 0 0 0 -3.322809064397685 3.0992579114491257 2.6370006458737
lowerback 11.706181262008222 -0.876696600579993 -3.5966487661219437
upperback 1.2488152470612803 -1.4252091094617503 1.042727235038988
thorax -5.198989507194252 -0.607048198122266 3.241833867918088
lowerneck -17.631716021314045 -2.88538837817143 -2.471131470413167
upperneck 17.64084420371302 -3.169090451593451 -0.33198074749632234
head 8.286642935316618 -1.7017604437356162 -0.06566582866328963
rclavicle 3.2193235956481445E-15 1.242273556719585E-15
rhumerus -50.06221253469707 -18.71170419017979 -72.76169298591385
rradius 23.969263072507353
rwrist -1.4463416429978686
rhand -21.756600685647076 28.04597820276787
rfingers 7.125020000000056
rthumb 4.61864193973264 -2.223239951395545
lclavicle -3.946593375144397E-16 -8.14722103318432E-15
lhumerus -35.89249227729027 -1.2435511063270352 84.1035758583688
lradius 28.798841363681486
lwrist 8.32887927696046
lhand -31.83362410170925 24.118933198112742
lfingers 7.125020000000041
lthumb -5.0245607689566505 54.837699483454735
rfemur -28.62191436590507 27.809148798187408 41.16031117061054
rtibia 23.79605883587401
rfoot -8.505635173101224 -13.372352716874532
rtoes -4.114216081602105
lfemur 2.299202801595868 -5.626135699729518 -23.208160967284318
ltibia 23.078036114967677
lfoot -9.114977227395565 -2.3258878874285074
ltoes -8.229873539052052
339
root 0 0 0 -3.3688237081845536 3.6874926974074036 2.6747849223472997
lowerback 11.690154746710885 -0.9387491856537933 -3.7067817489886954
upperback 1.2483969236069523 -1.5112775720648954 1.0534173846707515
thorax -5.178532459674828 -0.6492428650225792 3.326476926589147
lowerneck -17.6780169476915 -2.875421308893336 -2.501521000078911
upperneck 17.61985412279786 -3.1406108818096317 -0.3386010243710915
head 8.296215904183427 -1.6899027675125682 -0.06587507120617397
rclavicle 3.126616951145897E-15 1.3361076462379016E-15
rhumerus -50.30390696905705 -18.822000717584416 -72.84658410347731
rradius 23.787043072975642
rwrist -1.441744941486455
rhand -21.64933310895077 27.93575349989778
rfingers 7.125020000000055
rthumb 4.720291499660846 -2.325724656707214
lclavicle -1.850780764378304E-16 -8.088806687033868E-15
lhumerus -35.369329165368086 -1.4559453866169774 84.10158150143886
lradius 28.92162245629978
lwrist 8.675217933959996
lhand -31.71319514191959 24.339406114867224
lfingers 7.125020000000041
lthumb -4.911428703728959 55.04081430060934
rfemur -28.918151122824128 28.361099683029977 41.531514396918524
rtibia 23.609092070985696
rfoot -8.301259491634399 -13.536606057672937
rtoes -3.889560106660266
lfemur 2.743923756050208 -5.351508030572182 -23.25862184516676
ltibia 24.452435642153535
lfoot -8.524245970685588 -2.9710005344325907
ltoes -8.71160861036781
340
root 0 0 0 -3.4016894666222157 3.9323186136297252 2.6740915661036553
lowerback 11.686038363927665 -0.9632956111756679 -3.741593929647408
upperback 1.2505071277855908 -1.544068605892121 1.0617841400179078
thorax -5.169371437231728 -0.6655624098048567 3.3598036254725465
lowerneck -17.69919835048303 -2.8718195577903334 -2.511781047953562
upperneck 17.614407545885435 -3.1299822854963173 -0.3414167663281269
head 8.302354323349956 -1.6852246966698134 -0.06707229843160634
rclavicle 3.0670091855510602E-15 1.4019455387315918E-15
rhumerus -50.44730714339023 -18.89695538188919 -72.96152683736246
rradius 23.669515494559153
rwrist -1.484438489817478
rhand -21.569537465593378 27.853054643122448
rfingers 7.125020000000055
rthumb 4.796320673129692 -2.402206299132235
lclavicle -8.338986324372886E-17 -8.022495698138497E-15
lhumerus -35.07783576308637 -1.5646506759754892 84.1326413627346
lradius 28.98301282992369
lwrist 8.885340218547086
lhand -31.62782814903472 24.46349260997888
lfingers 7.12502000000004
lthumb -4.83110839427119 55.151912100834345
rfemur -29.02955453445169 28.597322898783858 41.70030436613652
rtibia 23.528413633825068
rfoot -8.198540213082866 -13.59271225827628
rtoes -3.7399158065206812
lfemur 2.776168215245967 -5.085724719824123 -23.194767908788478
ltibia 25.877795922239805
lfoot -7.892407105517968 -3.590684473924817
ltoes -9.135158382050315
341
root 0 0 0 -3.420117442852259 3.984380136908513 2.6604104761915828
lowerback 11.688470001020086 -0.9685611712628055 -3.740663369298983
upperback 1.2526009433219194 -1.5500688138636243 1.0682846660716143
thorax -5.168148134061775 -0.6687225636041201 3.367671052733695
lowerneck -17.70616375719226 -2.8706725516058675 -2.5109669333086466
upperneck 17.61476617736701 -3.1271412352471133 -0.3442251224578765
head 8.30499064016445 -1.6838197143828768 -0.06900340828282592
rclavicle 3.0361493462356413E-15 1.4468688927805653E-15
rhumerus -50.52058953986388 -18.94070843926101 -73.07848037219925
rradius 23.597993695044828
rwrist -1.5413431530591595
rhand -21.516493680154724 27.79632692605292
rfingers 7.125020000000054
rthumb 4.846991147277354 -2.4545912273265547
lclavicle -2.7379324739727817E-17 -7.960956996108164E-15
lhumerus -34.93126649093389 -1.6228167573254009 84.1755159671256
lradius 29.01908382733348
lwrist 9.03290894861453
lhand -31.560776412809847 24.542601595895217
lfingers 7.12502000000004
lthumb -4.7679631470235755 55.219715227398595
rfemur -29.04458600100746 28.667566151420232 41.761945242265796
rtibia 23.499935493109668
rfoot -8.15993430276087 -13.586541738163032
rtoes -3.639918302487615
lfemur 2.519906942632474 -4.804453354178717 -23.06854028631438
ltibia 27.37810727814333
lfoot -7.231760110657222 -4.190708892543448
ltoes -9.527508709206712
